<svg width="1024" height="1024" viewBox="0 0 1024 1024" fill="none" xmlns="http://www.w3.org/2000/svg">
  <rect width="1024" height="1024" rx="224" fill="#1769FF"/>
  <circle cx="512" cy="512" r="276" fill="white"/>
  <path d="M386 628.5C386 675.5 421.5 712 481.5 712C529.5 712 564 686 587 653L638 694.5C608 738 558.5 778 478.5 778C360.5 778 302 701.5 302 628.5C302 554.5 360.5 478 478.5 478C558.5 478 608 518 638 561.5L587 603C564 570 529.5 544 481.5 544C421.5 544 386 581.5 386 628.5Z" fill="#1769FF"/>
  <rect x="620" y="428" width="94" height="210" rx="47" fill="#1769FF"/>
</svg>
