<svg width="1024" height="1024" viewBox="0 0 1024 1024" fill="none" xmlns="http://www.w3.org/2000/svg">
  <rect width="1024" height="1024" rx="224" fill="#1769FF"/>
  <rect x="232" y="248" width="560" height="528" rx="96" fill="white"/>
  <rect x="232" y="248" width="560" height="128" rx="96" fill="#CFE0FF"/>
  <rect x="312" y="184" width="56" height="128" rx="28" fill="white"/>
  <rect x="656" y="184" width="56" height="128" rx="28" fill="white"/>
  <path d="M383.704 629.784C383.704 587.976 404.568 554.12 450.328 554.12C479.768 554.12 503.272 567.56 521.32 586.28L567.416 536.488C538.304 506.72 496.824 486.52 445.96 486.52C354.928 486.52 294.536 548.072 294.536 632.136C294.536 716.872 354.928 777.752 445.96 777.752C496.824 777.752 538.304 757.552 567.416 727.784L521.32 677.992C503.272 696.712 479.768 710.152 450.328 710.152C404.568 710.152 383.704 674.952 383.704 629.784Z" fill="#1769FF"/>
  <path d="M577.254 727V538.28H645.078V560.776C659.846 543.4 681.702 530.888 710.15 530.888C773.302 530.888 811.278 576.2 811.278 643.896V727H743.454V655.328C743.454 622.816 727.678 599.648 695.502 599.648C664.334 599.648 645.078 622.816 645.078 655.328V727H577.254Z" fill="#1769FF"/>
  <circle cx="724" cy="324" r="44" fill="#1769FF"/>
  <path d="M724 302C724 289.85 714.15 280 702 280C689.85 280 680 289.85 680 302C680 314.15 689.85 324 702 324H724V302Z" fill="white"/>
  <path d="M724 346C724 358.15 733.85 368 746 368C758.15 368 768 358.15 768 346C768 333.85 758.15 324 746 324H724V346Z" fill="white"/>
</svg>
